<svg xmlns="http://www.w3.org/2000/svg" viewBox="0 0 430 124" role="img" aria-labelledby="t d">
<title id="t">강릉 중앙시장 가이드</title><desc id="d">시장 차양과 물결을 형상화한 로고</desc>
<rect width="430" height="124" rx="18" fill="#fffaf0"/>
<g transform="translate(14 14)"><path d="M8 36h88v46a12 12 0 0 1-12 12H20A12 12 0 0 1 8 82z" fill="#174f42"/><path d="M3 35 14 7h77l10 28z" fill="#e3ac3b"/><path d="M18 35 25 7h17l-2 28zm40 0-2-28h17l7 28z" fill="#c94a36"/><path d="M20 63c13-11 25-11 38 0s25 11 37 0v13c-12 10-24 10-37 0s-25-10-38 0z" fill="#5e9d98"/><path d="M50 51c9-8 20-7 29 1-9 10-20 11-29 2l-8 6 2-9-2-9z" fill="#fffaf0"/></g>
<g fill="#1c2824"><text x="128" y="54" font-size="28" font-weight="900" font-family="Apple SD Gothic Neo,Noto Sans KR,Malgun Gothic,sans-serif">강릉 중앙시장</text><text x="129" y="84" font-size="15" font-weight="700" letter-spacing="4" font-family="Apple SD Gothic Neo,Noto Sans KR,Malgun Gothic,sans-serif" fill="#c94a36">MARKET WALK GUIDE</text></g>
</svg>
